<?xml version="1.0" encoding="UTF-8" standalone="no"?>
<svg
   xmlns:dc="http://purl.org/dc/elements/1.1/"
   xmlns:cc="http://creativecommons.org/ns#"
   xmlns:rdf="http://www.w3.org/1999/02/22-rdf-syntax-ns#"
   xmlns:svg="http://www.w3.org/2000/svg"
   xmlns="http://www.w3.org/2000/svg"
   xmlns:sodipodi="http://sodipodi.sourceforge.net/DTD/sodipodi-0.dtd"
   xmlns:inkscape="http://www.inkscape.org/namespaces/inkscape"
   version="1.1"
   x="0px"
   y="0px"
   viewBox="0 0 100 100"
   enable-background="new 0 0 65 65"
   xml:space="preserve"
   id="svg3800"
   sodipodi:docname="noun_Community_986471.svg"
   width="100"
   height="100"
   inkscape:version="0.92.2 5c3e80d, 2017-08-06"><metadata
     id="metadata3806"><rdf:RDF><cc:Work
         rdf:about=""><dc:format>image/svg+xml</dc:format><dc:type
           rdf:resource="http://purl.org/dc/dcmitype/StillImage" /><dc:title></dc:title></cc:Work></rdf:RDF></metadata><defs
     id="defs3804" /><sodipodi:namedview
     pagecolor="#ffffff"
     bordercolor="#666666"
     borderopacity="1"
     objecttolerance="10"
     gridtolerance="10"
     guidetolerance="10"
     inkscape:pageopacity="0"
     inkscape:pageshadow="2"
     inkscape:window-width="845"
     inkscape:window-height="657"
     id="namedview3802"
     showgrid="false"
     inkscape:zoom="3.7476923"
     inkscape:cx="48.559113"
     inkscape:cy="40.815853"
     inkscape:window-x="0"
     inkscape:window-y="0"
     inkscape:window-maximized="0"
     inkscape:current-layer="svg3800" /><g
     id="g3794"
     transform="matrix(1.228479,0,0,1.228479,10.033493,10.523939)"><path
       d="m 12.4,12.9 c 4.4,-4.5 10.2,-7.4 16.4,-8.2 0.5,1.6 1.9,2.9 3.7,2.9 2.1,0 3.9,-1.7 3.9,-3.9 0,-2.2 -1.7,-3.9 -3.9,-3.9 -2,0 -3.6,1.5 -3.8,3.4 C 22.1,4 15.9,7.1 11.3,11.8 Z M 32.5,1.3 c 1.3,0 2.4,1.1 2.4,2.4 0,1.3 -1.1,2.4 -2.4,2.4 -1.3,0 -2.4,-1.1 -2.4,-2.4 0,-1.4 1.1,-2.4 2.4,-2.4 z"
       id="path3778"
       inkscape:connector-curvature="0" /><path
       d="M 4.1,40.9 5.5,40.5 C 4.7,37.9 4.4,35.3 4.4,32.6 c 0,-3.7 0.7,-7.4 2.1,-10.8 0.3,0.1 0.7,0.1 1,0.1 1.4,0 2.7,-0.7 3.4,-1.9 0.5,-0.9 0.7,-1.9 0.4,-2.9 -0.3,-1 -0.9,-1.8 -1.8,-2.4 -0.6,-0.3 -1.3,-0.5 -2,-0.5 -1.4,0 -2.7,0.7 -3.4,1.9 -1,1.7 -0.5,3.8 1,5 -1.5,3.6 -2.3,7.5 -2.3,11.5 0.1,2.7 0.5,5.6 1.3,8.3 z M 5.5,16.8 c 0.4,-0.7 1.2,-1.2 2.1,-1.2 0.4,0 0.8,0.1 1.2,0.3 0.5,0.3 0.9,0.8 1.1,1.5 C 10.1,18 10,18.7 9.7,19.2 9,20.3 7.5,20.7 6.4,20 5.2,19.4 4.8,17.9 5.5,16.8 Z"
       id="path3780"
       inkscape:connector-curvature="0" /><path
       d="m 10.1,49.5 c 1.2,-1.2 1.5,-3.1 0.6,-4.7 -0.7,-1.2 -2,-2 -3.4,-2 -0.7,0 -1.3,0.2 -1.9,0.5 -0.9,0.5 -1.6,1.3 -1.8,2.3 -0.3,1 -0.1,2 0.4,3 0.7,1.2 2,2 3.4,2 0.5,0 1,-0.1 1.5,-0.3 3.9,5.1 9.3,8.9 15.5,10.6 l 0.4,-1.4 C 19,57.9 13.8,54.3 10.1,49.5 Z M 5.3,47.9 C 5,47.3 4.9,46.7 5.1,46.1 5.3,45.5 5.7,45 6.2,44.7 6.6,44.5 7,44.4 7.4,44.4 c 0.9,0 1.7,0.5 2.1,1.2 0.6,1.1 0.2,2.6 -0.9,3.3 C 7.5,49.5 6,49 5.3,47.9 Z"
       id="path3782"
       inkscape:connector-curvature="0" /><path
       d="m 52.4,52.3 c -4.4,4.4 -10.1,7.2 -16.2,8 -0.4,-1.6 -1.9,-2.9 -3.7,-2.9 -2.1,0 -3.9,1.7 -3.9,3.8 0,1 0.4,2 1.1,2.8 0.7,0.7 1.7,1.2 2.7,1.2 v 0 c 2,0 3.6,-1.5 3.8,-3.4 C 42.7,61 48.7,58 53.4,53.3 Z M 32.5,63.8 v 0.8 -0.8 c -0.7,0 -1.3,-0.3 -1.7,-0.7 -0.4,-0.5 -0.7,-1.1 -0.7,-1.7 0,-1.3 1.1,-2.4 2.4,-2.4 1.3,0 2.4,1.1 2.4,2.4 0,1.3 -1.1,2.4 -2.4,2.4 z"
       id="path3784"
       inkscape:connector-curvature="0" /><path
       d="m 55,15.7 c -0.5,0.5 -0.8,1 -1,1.7 -0.3,1 -0.2,2 0.3,3 0.7,1.2 2,2 3.4,2 0.7,0 1.3,-0.2 1.9,-0.5 0.9,-0.5 1.6,-1.3 1.8,-2.3 0.3,-1 0.2,-2 -0.3,-3 -0.7,-1.2 -2,-2 -3.4,-2 -0.5,0 -1,0.1 -1.4,0.3 C 52.2,9.4 46.3,5.4 39.7,3.8 l -0.4,1.5 c 6.3,1.5 11.9,5.2 15.7,10.4 z m 4.8,1.6 c 0.3,0.6 0.4,1.2 0.2,1.8 -0.2,0.6 -0.6,1.1 -1.1,1.4 -1.1,0.6 -2.6,0.2 -3.2,-0.9 -0.3,-0.6 -0.4,-1.2 -0.2,-1.8 0.2,-0.6 0.6,-1.1 1.1,-1.4 0.4,-0.2 0.8,-0.3 1.2,-0.3 0.8,0 1.6,0.5 2,1.2 z"
       id="path3786"
       inkscape:connector-curvature="0" /><path
       d="m 59.7,44.2 c 1.6,-3.7 2.4,-7.6 2.4,-11.7 0,-2.5 -0.3,-5.1 -1,-7.5 l -1.5,0.4 c 0.6,2.3 0.9,4.7 0.9,7.1 0,3.8 -0.8,7.5 -2.3,11 -0.3,-0.1 -0.7,-0.1 -1.1,-0.1 -1.4,0 -2.6,0.7 -3.3,1.9 -0.5,0.9 -0.7,1.9 -0.4,2.9 0.3,1 0.9,1.9 1.8,2.4 0.6,0.4 1.3,0.5 2,0.5 1.4,0 2.6,-0.7 3.3,-1.9 0.5,-0.9 0.7,-1.9 0.4,-2.9 0,-0.8 -0.5,-1.5 -1.2,-2.1 z m -0.4,4.3 C 58.7,49.6 57.1,50 56,49.3 54.9,48.6 54.5,47.2 55.2,46 c 0.4,-0.7 1.2,-1.2 2.1,-1.2 0.4,0 0.8,0.1 1.2,0.3 0.5,0.3 0.9,0.8 1.1,1.5 0.2,0.7 0.1,1.3 -0.3,1.9 z"
       id="path3788"
       inkscape:connector-curvature="0" /><path
       d="m 32.5,18.6 c -1.2,0 -2.4,0.3 -3.4,0.9 -1,-0.6 -2.1,-1 -3.2,-1 -3.2,0 -5.9,2.6 -5.9,5.9 0,3.3 2.6,5.9 5.9,5.9 0.7,0 1.3,-0.1 1.9,-0.3 1.2,1.2 2.9,1.9 4.7,1.9 1.8,0 3.5,-0.7 4.7,-1.9 0.6,0.2 1.3,0.3 1.9,0.3 3.2,0 5.9,-2.6 5.9,-5.9 0,-3.3 -2.6,-5.9 -5.9,-5.9 -1.2,0 -2.3,0.4 -3.2,1 -1,-0.6 -2.2,-0.9 -3.4,-0.9 z m -11,5.8 c 0,-2.4 2,-4.4 4.4,-4.4 0.7,0 1.4,0.2 2,0.5 -1.2,1.2 -2,2.9 -2,4.7 0,1.3 0.4,2.4 1,3.4 -0.3,0.1 -0.6,0.1 -1,0.1 -2.5,0.1 -4.4,-1.9 -4.4,-4.3 z m 11,6 c -2.8,0 -5.2,-2.3 -5.2,-5.2 0,-2.8 2.3,-5.2 5.2,-5.2 2.8,0 5.2,2.3 5.2,5.2 0,2.9 -2.4,5.2 -5.2,5.2 z M 39.1,20 c 2.4,0 4.4,2 4.4,4.4 0,2.4 -2,4.4 -4.4,4.4 -0.3,0 -0.6,0 -1,-0.1 0.6,-1 1,-2.2 1,-3.4 0,-1.9 -0.8,-3.5 -2,-4.7 0.7,-0.4 1.3,-0.6 2,-0.6 z"
       id="path3790"
       inkscape:connector-curvature="0" /><path
       d="M 51.6,42.2 C 51.5,40 51.3,38 51,36.4 V 36.3 C 50.9,35.5 50.6,34.7 50.2,33.8 V 33.7 C 49.8,33 49.1,32.3 48.4,31.9 48.2,31.8 47.9,31.6 47.6,31.5 l -4.3,-1.5 -1.7,3.3 -4.2,-1.5 -4.2,7.8 h -1.4 l -4.2,-7.8 -4.2,1.5 -1.7,-3.3 -4.2,1.5 c -0.3,0.1 -0.6,0.2 -0.8,0.4 -0.8,0.4 -1.4,1.1 -1.8,1.8 l -0.1,0.2 c -0.5,0.8 -0.7,1.7 -0.8,2.5 v 0.1 c -0.2,1.6 -0.4,3.6 -0.6,5.8 v 0.8 h 5.1 c -0.1,0.8 -0.1,1.7 -0.2,2.7 v 0.8 h 28.6 v -0.8 c -0.1,-1 -0.1,-1.9 -0.2,-2.7 h 5.1 z M 14.9,41.5 c 0.1,-1.9 0.3,-3.5 0.5,-4.9 0,-0.1 0,-0.2 0,-0.2 0.1,-0.6 0.3,-1.2 0.7,-2 0.3,-0.5 0.7,-0.9 1.3,-1.3 0.2,-0.1 0.4,-0.2 0.6,-0.3 l 3,-1.1 1.1,2.1 c -0.9,0.5 -1.7,1.2 -2.2,2.1 -0.6,1.1 -1,2.2 -1,3.3 0,0.2 -0.2,1 -0.3,2.2 h -3.7 z m 4.9,3.5 c 0.2,-3.6 0.6,-5.4 0.6,-5.4 v -0.2 c 0,-0.8 0.3,-1.7 0.8,-2.6 0.5,-0.8 1.3,-1.5 2.2,-1.8 l 3.5,-1.3 4,7.5 H 34 l 4,-7.5 3.5,1.2 c 0.3,0.1 0.5,0.2 0.7,0.3 0.6,0.4 1.1,0.8 1.5,1.5 v 0.1 c 0.4,0.8 0.7,1.5 0.8,2.2 0,0 0,0.1 0,0.2 0.2,1.6 0.4,3.6 0.6,5.8 z M 46.4,41.5 C 46.3,40.6 46.2,39.8 46.1,39 V 38.9 C 46,38 45.7,37 45.1,36.1 V 36 c -0.5,-0.8 -1.2,-1.5 -2.1,-2 0,0 0,0 0,0 L 44.1,31.9 47,33 c 0.2,0.1 0.4,0.2 0.6,0.3 0.5,0.3 0.9,0.7 1.3,1.2 v 0.1 c 0.4,0.7 0.6,1.3 0.7,1.9 0,0 0,0.1 0,0.2 0.2,1.4 0.4,3 0.5,4.9 h -3.7 z"
       id="path3792"
       inkscape:connector-curvature="0" /></g></svg>