<?xml version="1.0" standalone="no"?><!-- Generator: Gravit.io --><svg xmlns="http://www.w3.org/2000/svg" xmlns:xlink="http://www.w3.org/1999/xlink" style="isolation:isolate" viewBox="0 0 100 100" width="100px" height="100px"><defs><clipPath id="_clipPath_RfAEZfLxf183LKZVdeZhNeS5P5SQYQtr"><rect width="100" height="100"/></clipPath></defs><g clip-path="url(#_clipPath_RfAEZfLxf183LKZVdeZhNeS5P5SQYQtr)"><clipPath id="_clipPath_yOeMH376FAsxQz8oNyJ1evze1LcdYvk6"><rect x="0" y="0" width="100" height="100" transform="matrix(1,0,0,1,0,0)" fill="rgb(255,255,255)"/></clipPath><g clip-path="url(#_clipPath_yOeMH376FAsxQz8oNyJ1evze1LcdYvk6)"><g><path d=" M 25.267 26.371 C 30.672 20.843 37.797 17.281 45.414 16.298 C 46.028 18.263 47.748 19.86 49.959 19.86 C 52.539 19.86 54.75 17.772 54.75 15.069 C 54.75 12.367 52.662 10.278 49.959 10.278 C 47.502 10.278 45.537 12.121 45.291 14.455 C 37.183 15.438 29.566 19.246 23.915 25.02 L 25.267 26.371 L 25.267 26.371 Z  M 49.959 12.121 C 51.556 12.121 52.907 13.472 52.907 15.069 C 52.907 16.666 51.556 18.018 49.959 18.018 C 48.362 18.018 47.011 16.666 47.011 15.069 C 47.011 13.349 48.362 12.121 49.959 12.121 Z " fill="rgb(255,255,255)"/><path d=" M 15.07 60.769 L 16.79 60.277 C 15.807 57.083 15.439 53.889 15.439 50.572 C 15.439 46.027 16.299 41.482 18.019 37.305 C 18.387 37.428 18.879 37.428 19.247 37.428 C 20.967 37.428 22.564 36.568 23.424 35.094 C 24.038 33.988 24.284 32.759 23.915 31.531 C 23.547 30.302 22.81 29.32 21.704 28.583 C 20.967 28.214 20.107 27.968 19.247 27.968 C 17.527 27.968 15.93 28.828 15.07 30.302 C 13.842 32.391 14.456 34.971 16.299 36.445 C 14.456 40.867 13.473 45.658 13.473 50.572 C 13.596 53.889 14.087 57.452 15.07 60.769 Z  M 16.79 31.162 C 17.282 30.302 18.264 29.688 19.37 29.688 C 19.861 29.688 20.353 29.811 20.844 30.057 C 21.458 30.425 21.95 31.04 22.195 31.899 C 22.441 32.637 22.318 33.496 21.95 34.111 C 21.09 35.462 19.247 35.953 17.896 35.094 C 16.422 34.356 15.93 32.514 16.79 31.162 Z " fill="rgb(255,255,255)"/><path d=" M 22.441 71.334 C 23.915 69.859 24.284 67.525 23.178 65.56 C 22.318 64.086 20.721 63.103 19.001 63.103 C 18.141 63.103 17.404 63.349 16.667 63.717 C 15.562 64.331 14.702 65.314 14.456 66.543 C 14.087 67.771 14.333 69 14.947 70.228 C 15.807 71.702 17.404 72.685 19.124 72.685 C 19.738 72.685 20.353 72.562 20.967 72.316 C 25.758 78.582 32.392 83.25 40.008 85.338 L 40.5 83.618 C 33.375 81.653 26.987 77.23 22.441 71.334 Z  M 16.544 69.368 C 16.176 68.631 16.053 67.894 16.299 67.157 C 16.544 66.42 17.036 65.805 17.65 65.437 C 18.141 65.191 18.633 65.068 19.124 65.068 C 20.23 65.068 21.213 65.683 21.704 66.543 C 22.441 67.894 21.95 69.737 20.598 70.597 C 19.247 71.334 17.404 70.719 16.544 69.368 Z " fill="rgb(255,255,255)"/><path d=" M 74.406 74.773 C 69 80.179 61.998 83.618 54.504 84.601 C 54.013 82.636 52.17 81.039 49.959 81.039 C 47.379 81.039 45.168 83.127 45.168 85.707 C 45.168 86.935 45.659 88.164 46.519 89.147 C 47.379 90.007 48.608 90.621 49.836 90.621 L 49.836 90.621 C 52.293 90.621 54.259 88.778 54.504 86.444 C 62.49 85.461 69.86 81.776 75.634 76.002 L 74.406 74.773 L 74.406 74.773 Z  M 49.959 88.901 L 49.959 89.884 L 49.959 88.901 C 49.099 88.901 48.362 88.532 47.871 88.041 C 47.379 87.427 47.011 86.69 47.011 85.953 C 47.011 84.356 48.362 83.004 49.959 83.004 C 51.556 83.004 52.907 84.356 52.907 85.953 C 52.907 87.55 51.556 88.901 49.959 88.901 Z " fill="rgb(255,255,255)"/><path d=" M 77.6 29.811 C 76.986 30.425 76.617 31.04 76.371 31.899 C 76.003 33.128 76.126 34.356 76.74 35.585 C 77.6 37.059 79.197 38.042 80.917 38.042 C 81.777 38.042 82.514 37.796 83.251 37.428 C 84.356 36.813 85.216 35.831 85.462 34.602 C 85.831 33.374 85.708 32.145 85.094 30.917 C 84.234 29.443 82.637 28.46 80.917 28.46 C 80.302 28.46 79.688 28.583 79.197 28.828 C 74.16 22.072 66.912 17.158 58.804 15.192 L 58.313 17.035 C 66.052 18.878 72.932 23.423 77.6 29.811 Z  M 83.497 31.777 C 83.865 32.514 83.988 33.251 83.742 33.988 C 83.497 34.725 83.005 35.339 82.391 35.708 C 81.04 36.445 79.197 35.953 78.46 34.602 C 78.091 33.865 77.968 33.128 78.214 32.391 C 78.46 31.654 78.951 31.04 79.565 30.671 C 80.057 30.425 80.548 30.302 81.04 30.302 C 82.022 30.302 83.005 30.917 83.497 31.777 Z " fill="rgb(255,255,255)"/><path d=" M 83.374 64.823 C 85.339 60.277 86.322 55.486 86.322 50.45 C 86.322 47.378 85.953 44.184 85.094 41.236 L 83.251 41.727 C 83.988 44.553 84.356 47.501 84.356 50.45 C 84.356 55.118 83.374 59.663 81.531 63.963 C 81.162 63.84 80.671 63.84 80.18 63.84 C 78.46 63.84 76.986 64.7 76.126 66.174 C 75.511 67.28 75.266 68.508 75.634 69.737 C 76.003 70.965 76.74 72.071 77.846 72.685 C 78.583 73.176 79.443 73.299 80.302 73.299 C 82.022 73.299 83.497 72.439 84.356 70.965 C 84.971 69.859 85.216 68.631 84.848 67.403 C 84.848 66.42 84.234 65.56 83.374 64.823 Z  M 82.882 70.105 C 82.145 71.456 80.18 71.948 78.828 71.088 C 77.477 70.228 76.986 68.508 77.846 67.034 C 78.337 66.174 79.32 65.56 80.425 65.56 C 80.917 65.56 81.408 65.683 81.9 65.928 C 82.514 66.297 83.005 66.911 83.251 67.771 C 83.497 68.631 83.374 69.368 82.882 70.105 Z " fill="rgb(255,255,255)"/><path d=" M 49.959 33.374 C 48.485 33.374 47.011 33.742 45.782 34.479 C 44.554 33.742 43.202 33.251 41.851 33.251 C 37.92 33.251 34.603 36.445 34.603 40.499 C 34.603 44.553 37.797 47.747 41.851 47.747 C 42.711 47.747 43.448 47.624 44.185 47.378 C 45.659 48.852 47.748 49.712 49.959 49.712 C 52.17 49.712 54.259 48.852 55.733 47.378 C 56.47 47.624 57.33 47.747 58.067 47.747 C 61.998 47.747 65.315 44.553 65.315 40.499 C 65.315 36.445 62.121 33.251 58.067 33.251 C 56.593 33.251 55.242 33.742 54.136 34.479 C 52.907 33.742 51.433 33.374 49.959 33.374 Z  M 36.446 40.499 C 36.446 37.55 38.903 35.094 41.851 35.094 C 42.711 35.094 43.571 35.339 44.308 35.708 C 42.834 37.182 41.851 39.27 41.851 41.482 C 41.851 43.079 42.342 44.43 43.08 45.658 C 42.711 45.781 42.342 45.781 41.851 45.781 C 38.78 45.904 36.446 43.447 36.446 40.499 Z  M 49.959 47.87 C 46.519 47.87 43.571 45.044 43.571 41.482 C 43.571 38.042 46.396 35.094 49.959 35.094 C 53.399 35.094 56.347 37.919 56.347 41.482 C 56.347 45.044 53.399 47.87 49.959 47.87 Z  M 58.067 35.094 C 61.015 35.094 63.472 37.55 63.472 40.499 C 63.472 43.447 61.015 45.904 58.067 45.904 C 57.698 45.904 57.33 45.904 56.839 45.781 C 57.576 44.553 58.067 43.079 58.067 41.604 C 58.067 39.27 57.084 37.305 55.61 35.831 C 56.47 35.339 57.207 35.094 58.067 35.094 Z " fill="rgb(255,255,255)"/><path d=" M 73.423 62.366 C 73.3 59.663 73.054 57.206 72.686 55.241 L 72.686 55.118 C 72.563 54.135 72.195 53.152 71.703 52.047 L 71.703 51.924 C 71.212 51.064 70.352 50.204 69.492 49.712 C 69.246 49.59 68.878 49.344 68.509 49.221 L 63.227 47.378 L 61.138 51.432 L 55.979 49.59 L 50.819 59.172 L 49.099 59.172 L 43.94 49.59 L 38.78 51.432 L 36.691 47.378 L 31.532 49.221 C 31.163 49.344 30.795 49.467 30.549 49.712 C 29.566 50.204 28.829 51.064 28.338 51.924 L 28.215 52.169 C 27.601 53.152 27.355 54.258 27.232 55.241 L 27.232 55.363 C 26.987 57.329 26.741 59.786 26.495 62.489 L 26.495 63.471 L 32.76 63.471 C 32.638 64.454 32.638 65.56 32.515 66.788 L 32.515 67.771 L 67.649 67.771 L 67.649 66.788 C 67.526 65.56 67.526 64.454 67.403 63.471 L 73.669 63.471 L 73.423 62.366 L 73.423 62.366 Z  M 28.338 61.506 C 28.461 59.172 28.706 57.206 28.952 55.486 C 28.952 55.363 28.952 55.241 28.952 55.241 C 29.075 54.503 29.321 53.766 29.812 52.784 C 30.181 52.169 30.672 51.678 31.409 51.187 C 31.655 51.064 31.9 50.941 32.146 50.818 L 35.832 49.467 L 37.183 52.047 C 36.077 52.661 35.094 53.521 34.48 54.626 C 33.743 55.978 33.252 57.329 33.252 58.68 C 33.252 58.926 33.006 59.909 32.883 61.383 L 28.338 61.383 L 28.338 61.506 L 28.338 61.506 Z  M 34.357 65.805 C 34.603 61.383 35.094 59.172 35.094 59.172 L 35.094 58.926 C 35.094 57.943 35.463 56.838 36.077 55.732 C 36.691 54.749 37.674 53.889 38.78 53.521 L 43.08 51.924 L 47.993 61.137 L 51.802 61.137 L 56.716 51.924 L 61.015 53.398 C 61.384 53.521 61.63 53.644 61.875 53.766 C 62.612 54.258 63.227 54.749 63.718 55.609 L 63.718 55.732 C 64.209 56.715 64.578 57.575 64.701 58.435 C 64.701 58.435 64.701 58.557 64.701 58.68 C 64.947 60.646 65.192 63.103 65.438 65.805 L 34.357 65.805 L 34.357 65.805 Z  M 67.035 61.506 C 66.912 60.4 66.789 59.417 66.666 58.435 L 66.666 58.312 C 66.544 57.206 66.175 55.978 65.438 54.872 L 65.438 54.749 C 64.824 53.766 63.964 52.906 62.858 52.292 C 62.858 52.292 62.858 52.292 62.858 52.292 L 64.209 49.712 L 67.772 51.064 C 68.018 51.187 68.263 51.309 68.509 51.432 C 69.123 51.801 69.615 52.292 70.106 52.906 L 70.106 53.029 C 70.598 53.889 70.843 54.626 70.966 55.363 C 70.966 55.363 70.966 55.486 70.966 55.609 C 71.212 57.329 71.457 59.295 71.58 61.629 L 67.035 61.629 L 67.035 61.506 L 67.035 61.506 Z " fill="rgb(255,255,255)"/></g></g></g></svg>