<?xml version="1.0" standalone="no"?><!-- Generator: Gravit.io --><svg xmlns="http://www.w3.org/2000/svg" xmlns:xlink="http://www.w3.org/1999/xlink" style="isolation:isolate" viewBox="0 0 1083 1280" width="1083px" height="1280px"><defs><clipPath id="_clipPath_MgB8ITD1FsxioMmEB0IGCNDZ6KXJEhVn"><rect width="1083" height="1280"/></clipPath></defs><g clip-path="url(#_clipPath_MgB8ITD1FsxioMmEB0IGCNDZ6KXJEhVn)"><path d=" M 467.5 49 L 492 98 L 738.5 98 L 985 98 L 1009.5 49 L 1034 0 L 738.5 0 L 443 0 L 467.5 49 Z " fill="rgb(74,134,232)"/><path d=" M 492 209.7 C 492 271 492.6 288.8 495.6 309 C 505.8 379.7 532.3 438.2 572 478 C 607 513.1 650.2 533.2 703.9 539.5 C 718.6 541.2 754 541.5 769.1 540 C 843.1 532.6 900.2 497.3 938.2 435.4 C 963.5 394.4 980.4 337.4 984 281.2 C 984.5 273.1 985 239.8 985 207.2 L 985 148 L 738.5 148 L 492 148 L 492 209.7 Z " fill="rgb(74,134,232)"/><path d=" M 84.5 294.9 C 62.7 298.5 44 307.9 29 323 C 16.4 335.5 8 350.1 2.7 368.8 L 0.5 376.5 L 0.2 584.5 C 0 731.6 0.2 795 1 800.9 C 5.2 833.1 25.8 861.5 55.5 875.9 C 71.4 883.7 79.4 885.5 98.5 885.4 L 114.5 885.4 L 253.9 854.2 C 330.5 837 393.4 823 393.6 823 C 393.8 823 394.1 925.6 394.2 1051.1 L 394.5 1279.2 L 404.6 1267.3 C 410.1 1260.8 512.7 1139.9 632.6 998.5 C 752.5 857.1 877.9 709.3 911.3 670 C 944.7 630.7 972 598.2 972 597.9 C 972 597.2 956 593.4 947 592 C 942.8 591.4 869.1 591 740.4 591 L 540.3 591 L 509.9 597.5 C 493.2 601.1 461.8 607.9 440.3 612.5 C 388.3 623.7 330.9 636.1 285.5 645.9 C 265.2 650.3 237.7 656.2 224.5 659 C 211.3 661.8 199.7 664.3 198.8 664.6 C 197.1 665.1 197 657 196.7 521.3 L 196.5 377.5 L 194.2 369.2 C 187.6 344.5 172.9 323.7 152.8 310.6 C 136.2 299.8 121.5 295.1 102 294.5 C 95.1 294.3 87.3 294.5 84.5 294.9 Z " fill="rgb(74,134,232)"/><path d=" M 1049.8 669.8 C 1045.2 675.3 992.1 737.7 932 808.7 C 871.8 879.7 759.6 1011.9 682.6 1102.7 C 605.7 1193.4 540.5 1270.3 537.7 1273.5 L 532.8 1279.2 L 807.9 1279.2 L 1083 1279.2 L 1082.7 1001.5 L 1082.4 723.7 L 1080.2 713.7 C 1076 695.4 1068.7 676.8 1060.7 663.8 L 1058.3 660 L 1049.8 669.8 Z " fill="rgb(74,134,232)"/></g></svg>