<?xml version="1.0" standalone="no"?><!-- Generator: Gravit.io --><svg xmlns="http://www.w3.org/2000/svg" xmlns:xlink="http://www.w3.org/1999/xlink" style="isolation:isolate" viewBox="0 0 100.003 80.949" width="100.003px" height="80.949px"><defs><clipPath id="_clipPath_1Y31cySRjhGrD6p6Htaqk9x0Qty7EYVZ"><rect width="100.003" height="80.949"/></clipPath></defs><g clip-path="url(#_clipPath_1Y31cySRjhGrD6p6Htaqk9x0Qty7EYVZ)"><g><path d=" M 36.405 31.327 C 36.405 33.869 34.344 35.933 31.799 35.933 C 29.25 35.933 27.186 33.869 27.186 31.327 C 27.186 28.781 29.25 26.721 31.799 26.721 C 34.344 26.72 36.405 28.781 36.405 31.327 Z " fill="rgb(0,150,136)"/><path d=" M 32.284 62.875 L 33.274 79.867 C 33.274 80.467 33.762 80.948 34.355 80.948 C 34.954 80.948 35.436 80.467 35.436 79.867 L 36.36 62.875 L 39.364 62.875 L 36.258 43.82 L 42.511 56.274 C 42.745 56.828 43.38 57.094 43.933 56.854 C 44.477 56.625 44.741 55.988 44.503 55.441 C 44.503 55.441 39.92 43.033 38.784 40.724 C 37.654 38.416 36.538 37.01 32.238 37.01 L 31.353 37.01 C 27.062 37.01 25.939 38.416 24.807 40.724 C 23.681 43.033 19.084 55.441 19.084 55.441 C 18.856 55.988 19.11 56.626 19.657 56.854 C 20.211 57.094 20.842 56.828 21.076 56.274 L 27.336 43.82 L 24.221 62.876 L 27.225 62.876 L 28.156 79.868 C 28.156 80.468 28.644 80.949 29.237 80.949 C 29.842 80.949 30.324 80.468 30.324 79.868 L 31.248 62.876 L 32.284 62.876 L 32.284 62.875 Z " fill="rgb(0,150,136)"/></g><g><path d=" M 68.619 26.708 C 66.067 26.708 64.003 28.769 64.003 31.317 C 64.003 33.859 66.067 35.92 68.619 35.92 C 71.158 35.92 73.216 33.859 73.216 31.317 C 73.216 28.768 71.158 26.708 68.619 26.708 Z " fill="rgb(0,150,136)"/><path d=" M 73.392 53.827 L 73.704 43.814 L 79.329 56.268 C 79.563 56.821 80.201 57.075 80.748 56.847 C 81.295 56.613 81.556 55.981 81.321 55.421 C 81.321 55.421 77.362 43.019 76.229 40.711 C 75.096 38.403 73.352 36.997 69.055 36.997 L 68.17 36.997 C 63.873 36.997 62.115 38.403 60.995 40.711 C 59.862 43.019 55.904 55.421 55.904 55.421 C 55.67 55.981 55.924 56.612 56.477 56.847 C 57.024 57.075 57.662 56.821 57.889 56.268 L 63.521 43.814 L 63.833 53.827 L 62.947 79.009 C 62.869 80.012 63.625 80.878 64.621 80.949 C 64.666 80.949 64.712 80.949 64.744 80.949 C 65.695 80.949 66.489 80.22 66.56 79.269 L 68.605 59.796 L 70.656 79.269 C 70.72 80.219 71.521 80.949 72.466 80.949 C 72.505 80.949 72.557 80.949 72.596 80.949 C 73.592 80.878 74.341 80.011 74.276 79.009 L 73.384 53.827 L 73.392 53.827 L 73.392 53.827 Z " fill="rgb(0,150,136)"/></g><g><path d=" M 50 54.711 C 48.438 54.711 47.171 55.981 47.171 57.537 C 47.171 59.099 48.437 60.362 50 60.362 C 51.562 60.362 52.832 59.099 52.832 57.537 C 52.831 55.981 51.562 54.711 50 54.711 Z " fill="rgb(0,150,136)"/><path d=" M 50 71.366 C 50 71.366 51.273 80.2 51.276 80.207 C 51.445 80.637 51.855 80.949 52.347 80.949 C 52.858 80.949 53.281 80.61 53.431 80.155 C 53.444 80.129 53.47 79.608 53.444 79.516 L 52.926 68.657 L 53.085 64.927 C 53.235 63.657 53.261 64.035 54.706 63.176 C 56.178 62.29 58.685 58.41 58.808 58.215 C 58.925 58.02 59.16 57.681 59.199 57.46 C 59.271 57.069 59.017 56.704 58.627 56.626 C 58.34 56.574 58.086 56.73 57.898 56.933 C 57.703 57.141 54.819 60.982 52.657 61.347 C 52.176 61.275 51.651 61.028 50.275 61.028 L 49.728 61.028 C 48.357 61.028 47.833 61.275 47.345 61.347 C 45.183 60.982 42.296 57.141 42.104 56.933 C 41.915 56.731 41.671 56.575 41.375 56.626 C 40.988 56.704 40.734 57.069 40.806 57.46 C 40.848 57.681 41.082 58.02 41.2 58.215 C 41.321 58.41 43.83 62.29 45.299 63.176 C 46.744 64.035 46.774 63.657 46.92 64.927 L 47.076 68.657 L 46.561 79.516 C 46.532 79.608 46.561 80.128 46.574 80.155 C 46.727 80.61 47.144 80.949 47.658 80.949 C 48.146 80.949 48.563 80.637 48.729 80.207 C 48.73 80.2 50 71.366 50 71.366 Z " fill="rgb(0,150,136)"/></g><path d=" M 99.212 36.675 C 100.605 34.679 100.11 31.929 98.105 30.536 L 57.35 2.183 C 53.161 -0.727 46.842 -0.727 42.66 2.183 L 1.894 30.536 C -0.105 31.929 -0.603 34.68 0.79 36.675 C 2.184 38.677 4.931 39.172 6.933 37.779 L 47.691 9.426 C 48.837 8.632 51.168 8.632 52.31 9.426 L 93.065 37.779 C 93.834 38.313 94.719 38.57 95.579 38.57 C 96.979 38.569 98.353 37.909 99.212 36.675 Z " fill="rgb(0,150,136)"/></g></svg>